<svg width="14" height="15" viewBox="0 0 14 15" fill="none" xmlns="http://www.w3.org/2000/svg">
<path d="M10.2399 1.59375H4.31084C2.67358 1.59375 1.34631 2.9369 1.34631 4.59375V10.5938C1.34631 12.2506 2.67358 13.5938 4.31084 13.5938H10.2399C11.8771 13.5938 13.2044 12.2506 13.2044 10.5938V4.59375C13.2044 2.9369 11.8771 1.59375 10.2399 1.59375Z" stroke="white" stroke-width="1.5"/>
<path d="M9.64707 7.21585C9.72025 7.71517 9.63596 8.22513 9.40621 8.67319C9.17646 9.12125 8.81294 9.4846 8.36735 9.71155C7.92177 9.93849 7.41681 10.0175 6.9243 9.93729C6.4318 9.8571 5.97682 9.62179 5.62408 9.26486C5.27135 8.90792 5.03882 8.44752 4.95957 7.94914C4.88032 7.45077 4.95838 6.93979 5.18265 6.4889C5.40693 6.03801 5.76599 5.67015 6.20878 5.43766C6.65156 5.20517 7.15552 5.11989 7.64897 5.19393C8.1523 5.26946 8.61829 5.50679 8.97809 5.87089C9.33789 6.23498 9.57244 6.70651 9.64707 7.21585Z" stroke="white" stroke-width="1.5" stroke-linecap="round" stroke-linejoin="round"/>
</svg>
